<svg width="120" height="120" viewBox="0 0 120 120" fill="none" xmlns="http://www.w3.org/2000/svg">
<circle cx="60" cy="60" r="60" fill="#A5E1FF"/>
<path d="M92.8045 77.5312L62.8045 30.8646C62.1909 29.9104 61.1347 29.3333 60.0003 29.3333C58.8659 29.3333 57.8097 29.9104 57.1961 30.8646L27.1961 77.5312C26.8724 78.0348 26.6902 78.6162 26.6688 79.2145C26.6473 79.8128 26.7874 80.4058 27.0742 80.9312C27.3612 81.4565 27.7844 81.8949 28.2992 82.2003C28.8141 82.5056 29.4017 82.6667 30.0003 82.6666H90.0003C91.2201 82.6666 92.342 82.001 92.9263 80.9302C93.2132 80.4049 93.3532 79.8121 93.3318 79.214C93.3104 78.6159 93.1282 78.0346 92.8045 77.5312ZM60.0003 38.8312L68.8951 52.6666H60.0003L53.3336 59.3333L49.369 55.3687L60.0003 38.8312Z" fill="black"/>
</svg>
